<svg width="98" height="98" viewBox="0 0 98 98" fill="none" xmlns="http://www.w3.org/2000/svg">
<g filter="url(#filter0_d_606_34)">
<circle cx="25" cy="25" r="25" transform="matrix(-1 0 0 1 74 18)" fill="white"/>
<path d="M45.3024 42.5679C45.3024 42.7744 45.3812 42.9808 45.5386 43.1382L50.4918 48.0914C50.8069 48.4065 51.3178 48.4065 51.6327 48.0914C51.9477 47.7765 51.9477 47.2657 51.6327 46.9506L47.2498 42.5679L51.6326 38.1852C51.9475 37.8702 51.9475 37.3594 51.6326 37.0445C51.3176 36.7293 50.8068 36.7293 50.4917 37.0445L45.5384 41.9976C45.381 42.1551 45.3024 42.3616 45.3024 42.5679Z" fill="#3A3490"/>
</g>
<defs>
<filter id="filter0_d_606_34" x="0" y="0" width="98" height="98" filterUnits="userSpaceOnUse" color-interpolation-filters="sRGB">
<feFlood flood-opacity="0" result="BackgroundImageFix"/>
<feColorMatrix in="SourceAlpha" type="matrix" values="0 0 0 0 0 0 0 0 0 0 0 0 0 0 0 0 0 0 127 0" result="hardAlpha"/>
<feOffset dy="6"/>
<feGaussianBlur stdDeviation="12"/>
<feComposite in2="hardAlpha" operator="out"/>
<feColorMatrix type="matrix" values="0 0 0 0 0 0 0 0 0 0 0 0 0 0 0 0 0 0 0.08 0"/>
<feBlend mode="normal" in2="BackgroundImageFix" result="effect1_dropShadow_606_34"/>
<feBlend mode="normal" in="SourceGraphic" in2="effect1_dropShadow_606_34" result="shape"/>
</filter>
</defs>
</svg>
